<svg width="43" height="43" viewBox="0 0 43 43" fill="none" xmlns="http://www.w3.org/2000/svg">
<path d="M28.8013 31.3132C37.1346 24.6466 37.968 15.6593 31.3013 3.99267M13.8013 11.3132C5.46797 17.9799 4.63463 27.1466 11.3013 38.8132M21.3013 1.31323C15.997 1.31323 10.9099 3.42037 7.15916 7.1711C3.40844 10.9218 1.3013 16.0089 1.3013 21.3132C1.3013 26.6176 3.40844 31.7046 7.15916 35.4554C10.9099 39.2061 15.997 41.3132 21.3013 41.3132C26.6056 41.3132 31.6927 39.2061 35.4434 35.4554C39.1942 31.7046 41.3013 26.6176 41.3013 21.3132C41.3013 16.0089 39.1942 10.9218 35.4434 7.1711C31.6927 3.42037 26.6056 1.31323 21.3013 1.31323ZM21.3013 8.81323C17.9861 8.81323 14.8067 10.1302 12.4625 12.4744C10.1183 14.8186 8.8013 17.998 8.8013 21.3132C8.8013 24.6284 10.1183 27.8079 12.4625 30.1521C14.8067 32.4963 17.9861 33.8132 21.3013 33.8132C24.6165 33.8132 27.7959 32.4963 30.1401 30.1521C32.4843 27.8079 33.8013 24.6284 33.8013 21.3132C33.8013 17.998 32.4843 14.8186 30.1401 12.4744C27.7959 10.1302 24.6165 8.81323 21.3013 8.81323Z" stroke="white" stroke-width="2" stroke-linejoin="round"/>
</svg>
